<svg width="580" height="352" xmlns="http://www.w3.org/2000/svg" xmlns:xlink="http://www.w3.org/1999/xlink" overflow="hidden"><defs><clipPath id="clip0"><path d="M639 9 1219 9 1219 361 639 361Z" fill-rule="evenodd" clip-rule="evenodd"/></clipPath><clipPath id="clip1"><path d="M664 66 844 66 844 341 664 341Z" fill-rule="evenodd" clip-rule="evenodd"/></clipPath><clipPath id="clip2"><path d="M664 66 844 66 844 341 664 341Z" fill-rule="evenodd" clip-rule="evenodd"/></clipPath><clipPath id="clip3"><path d="M613 66 890 66 890 341 613 341Z" fill-rule="evenodd" clip-rule="evenodd"/></clipPath></defs><g clip-path="url(#clip0)" transform="translate(-639 -9)">
      <g clip-path="url(#clip1)"><g clip-path="url(#clip2)"><g clip-path="url(#clip3)"><path d="M137.5 28.6458C137.5 28.6458 65.8854 129.479 65.8854 174.74 65.8854 214.271 97.9688 246.354 137.5 246.354 177.031 246.354 209.115 214.271 209.115 174.74 209.115 129.193 137.5 28.6458 137.5 28.6458Z" fill="#00104B" fill-opacity="0.2" transform="matrix(1.00457 0 -0 1 613.473 66)"/></g></g></g></g></svg>