<svg width="580" height="352" xmlns="http://www.w3.org/2000/svg" xmlns:xlink="http://www.w3.org/1999/xlink" overflow="hidden"><defs><clipPath id="clip0"><path d="M652 359 1232 359 1232 711 652 711Z" fill-rule="evenodd" clip-rule="evenodd"/></clipPath><clipPath id="clip1"><path d="M664 422 897 422 897 654 664 654Z" fill-rule="evenodd" clip-rule="evenodd"/></clipPath><clipPath id="clip2"><path d="M664 422 897 422 897 654 664 654Z" fill-rule="evenodd" clip-rule="evenodd"/></clipPath><clipPath id="clip3"><path d="M664 422 897 422 897 654 664 654Z" fill-rule="evenodd" clip-rule="evenodd"/></clipPath></defs><g clip-path="url(#clip0)" transform="translate(-652 -359)"><rect x="653.5" y="360.5" width="577" height="349" stroke="#FFFFFF" stroke-width="1.33333" stroke-miterlimit="8" fill="#00104B"/><g clip-path="url(#clip1)"><g clip-path="url(#clip2)"><g clip-path="url(#clip3)"><path d="M128.688 70.0833C108.667 70.0833 92.4375 86.3129 92.4375 106.333 92.4375 107.131 92.4375 107.904 92.4375 108.75 110.367 100.024 131.976 107.485 140.702 125.414 142.772 129.667 143.986 134.285 144.275 139.007 162.32 130.335 169.919 108.678 161.248 90.6327 155.23 78.1086 142.582 70.1266 128.688 70.0833ZM152.854 103.917C151.519 103.917 150.438 102.835 150.438 101.5 150.438 92.1572 142.864 84.5833 133.521 84.5833 132.186 84.5833 131.104 83.5014 131.104 82.1667 131.104 80.8319 132.186 79.75 133.521 79.75 145.533 79.75 155.271 89.4877 155.271 101.5 155.271 102.835 154.189 103.917 152.854 103.917Z" fill="#F2F2F2" fill-opacity="0.7" transform="matrix(1.00431 0 -0 1 664 422)"/><path d="M108.146 109.958C90.7949 109.958 76.7292 124.024 76.7292 141.375 76.7292 158.726 90.7949 172.792 108.146 172.792 125.497 172.792 139.563 158.726 139.563 141.375 139.563 124.024 125.497 109.958 108.146 109.958ZM127.479 138.958C126.144 138.958 125.063 137.876 125.063 136.542 125.063 129.868 119.653 124.458 112.979 124.458 111.644 124.458 110.563 123.376 110.563 122.042 110.563 120.707 111.644 119.625 112.979 119.625 122.322 119.625 129.896 127.199 129.896 136.542 129.896 137.876 128.814 138.958 127.479 138.958Z" fill="#F2F2F2" fill-opacity="0.7" transform="matrix(1.00431 0 -0 1 664 422)"/><path d="M59.8125 71.2917C47.8002 71.2917 38.0625 81.0294 38.0625 93.0417 38.0625 105.054 47.8002 114.792 59.8125 114.792 71.8248 114.792 81.5625 105.054 81.5625 93.0417 81.5625 81.0294 71.8248 71.2917 59.8125 71.2917ZM70.6875 91.8333C69.3528 91.8333 68.2708 90.7514 68.2708 89.4167 68.2708 86.7472 66.107 84.5833 63.4375 84.5833 62.1028 84.5833 61.0208 83.5014 61.0208 82.1667 61.0208 80.8319 62.1028 79.75 63.4375 79.75 68.7762 79.75 73.1042 84.078 73.1042 89.4167 73.1042 90.7514 72.0222 91.8333 70.6875 91.8333Z" fill="#F2F2F2" fill-opacity="0.7" transform="matrix(1.00431 0 -0 1 664 422)"/><path d="M178.229 163.125C164.882 163.125 154.063 173.945 154.063 187.292 154.063 200.639 164.882 211.458 178.229 211.458 191.576 211.458 202.396 200.639 202.396 187.292 202.396 173.945 191.576 163.125 178.229 163.125ZM190.313 186.494C188.756 186.481 187.498 185.223 187.485 183.667 187.485 180.557 184.964 178.036 181.854 178.036 180.293 178.036 179.027 176.77 179.027 175.208 179.027 173.647 180.293 172.381 181.854 172.381 188.082 172.394 193.127 177.439 193.14 183.667 193.127 185.223 191.869 186.481 190.313 186.494Z" fill="#F2F2F2" fill-opacity="0.7" transform="matrix(1.00431 0 -0 1 664 422)"/><path d="M190.844 54.375C190.844 64.0115 183.032 71.8233 173.396 71.8233 163.759 71.8233 155.948 64.0115 155.948 54.375 155.948 44.7386 163.759 36.9267 173.396 36.9267 183.032 36.9267 190.844 44.7386 190.844 54.375Z" fill="#F2F2F2" fill-opacity="0.7" transform="matrix(1.00431 0 -0 1 664 422)"/><path d="M69.4792 180.042C69.4792 190.719 60.8233 199.375 50.1458 199.375 39.4683 199.375 30.8125 190.719 30.8125 180.042 30.8125 169.364 39.4683 160.708 50.1458 160.708 60.8233 160.708 69.4792 169.364 69.4792 180.042Z" fill="#F2F2F2" fill-opacity="0.7" transform="matrix(1.00431 0 -0 1 664 422)"/><path d="M97.8025 35.0417C97.8025 43.3434 91.0726 50.0733 82.7708 50.0733 74.4691 50.0733 67.7392 43.3434 67.7392 35.0417 67.7392 26.7399 74.4691 20.01 82.7708 20.01 91.0726 20.01 97.8025 26.7399 97.8025 35.0417Z" fill="#F2F2F2" fill-opacity="0.7" transform="matrix(1.00431 0 -0 1 664 422)"/><path d="M48.9375 47.125C48.9375 51.1291 45.6916 54.375 41.6875 54.375 37.6834 54.375 34.4375 51.1291 34.4375 47.125 34.4375 43.1209 37.6834 39.875 41.6875 39.875 45.6916 39.875 48.9375 43.1209 48.9375 47.125Z" fill="#F2F2F2" fill-opacity="0.7" transform="matrix(1.00431 0 -0 1 664 422)"/><path d="M193.938 141.375C193.938 145.379 190.692 148.625 186.688 148.625 182.683 148.625 179.438 145.379 179.438 141.375 179.438 137.371 182.683 134.125 186.688 134.125 190.692 134.125 193.938 137.371 193.938 141.375Z" fill="#F2F2F2" fill-opacity="0.7" transform="matrix(1.00431 0 -0 1 664 422)"/><path d="M97.2708 194.542C97.2708 198.546 94.0249 201.792 90.0208 201.792 86.0168 201.792 82.7708 198.546 82.7708 194.542 82.7708 190.538 86.0168 187.292 90.0208 187.292 94.0249 187.292 97.2708 190.538 97.2708 194.542Z" fill="#F2F2F2" fill-opacity="0.7" transform="matrix(1.00431 0 -0 1 664 422)"/></g></g></g></g></svg>